# xmcd
#
# Track frame offsets: 
#        150
#        18347
#        35759
#        50209
#        61548
#        77107
#        93627
#        105133
#        117809
#        133088
#        151965
#
# Disc length: 2337 seconds
#
# Revision: 0
# Processed by: cddbd v1.5.2PL0 Copyright (c) Steve Scherf et al.
# Submitted via: ExactAudioCopy v0.99pb4
#
DISCID=86091f0b
DTITLE=Maylene And The Sons Of Disaster - III
DYEAR=2009
DGENRE=Southern Metal
TTITLE0=Waiting On My Deathbed
TTITLE1=Settling Scores By Burning Bridges
TTITLE2=Just A Shock
TTITLE3=Last Train Coming
TTITLE4=Step Up (I'm On It)
TTITLE5=Listen Close
TTITLE6=The Old Iron Hills
TTITLE7=No Good Son
TTITLE8=Harvest Moon Hanging
TTITLE9=Oh Lonely Grave
TTITLE10=The End Is Here ... The End Is Beautiful
EXTD=
EXTT0=
EXTT1=
EXTT2=
EXTT3=
EXTT4=
EXTT5=
EXTT6=
EXTT7=
EXTT8=
EXTT9=
EXTT10=
PLAYORDER=
